<svg width="48" height="48" viewBox="0 0 48 48" fill="none" xmlns="http://www.w3.org/2000/svg">
<rect width="48" height="48" rx="4.8" fill="#E0E7F9"/>
<path opacity="0.4" d="M32.62 20.45C31.57 15.83 27.54 13.75 24 13.75C24 13.75 24 13.75 23.99 13.75C20.46 13.75 16.42 15.82 15.37 20.44C14.2 25.6 17.36 29.97 20.22 32.72C21.28 33.74 22.64 34.25 24 34.25C25.36 34.25 26.72 33.74 27.77 32.72C30.63 29.97 33.79 25.61 32.62 20.45Z" fill="#1C3053"/>
<path d="M24 25.4599C25.7397 25.4599 27.15 24.0496 27.15 22.3099C27.15 20.5702 25.7397 19.1599 24 19.1599C22.2603 19.1599 20.85 20.5702 20.85 22.3099C20.85 24.0496 22.2603 25.4599 24 25.4599Z" fill="#1C3053"/>
</svg>
