<svg width="64" height="64" viewBox="0 0 64 64" fill="none" xmlns="http://www.w3.org/2000/svg">
<rect width="64" height="64" rx="16" fill="white" style="fill:white;fill-opacity:1;"/>
<path fill-rule="evenodd" clip-rule="evenodd" d="M4.48836 36.9943C4.48836 36.9943 36.1234 29.1521 40.6832 28.0218C41.0411 27.9331 41.4153 27.9334 41.7729 28.0229C44.1107 28.6075 53.3611 30.9206 57.4628 31.9463C58.6201 32.2357 59.4244 33.2813 59.4037 34.4694C59.3063 40.0486 59.0417 55.2095 59.0417 55.2095H6.49828C5.88467 55.2095 5.29675 54.964 4.86664 54.5281C4.43652 54.0923 4.20025 53.5026 4.21092 52.8916C4.25802 50.1933 4.32942 46.1019 4.32942 46.1019L8.92191 44.9634L8.82254 50.6557H40.8308L41.1487 32.4404L4.40891 41.548L4.48839 36.9942L4.48836 36.9943Z" fill="#1C3053" style="fill:#1C3053;fill:color(display-p3 0.1098 0.1882 0.3255);fill-opacity:1;"/>
<path fill-rule="evenodd" clip-rule="evenodd" d="M22.7889 5.91229C23.1476 5.82336 23.5228 5.82374 23.8813 5.9134C27.7717 6.88621 51.3225 12.7753 57.9959 14.4441C59.0272 14.702 59.744 15.6337 59.7255 16.6925C59.6607 20.4059 59.5186 28.5459 59.5186 28.5459L54.9659 27.4075L55.1248 18.2998L23.2557 10.3307C23.2557 10.3307 23.0477 22.2475 22.9682 26.8035C22.9503 27.8312 22.2413 28.7186 21.2398 28.9668C16.69 30.0947 4.56793 33.0997 4.56793 33.0997C4.56793 33.0997 4.8419 17.4043 4.93491 12.076C4.95288 11.0466 5.66309 10.1577 6.66631 9.90897C10.64 8.9239 20.3786 6.50976 22.789 5.91224L22.7889 5.91229Z" fill="#387FBC" style="fill:#387FBC;fill:color(display-p3 0.2196 0.4980 0.7373);fill-opacity:1;"/>
</svg>
