<svg width="48" height="48" viewBox="0 0 48 48" fill="none" xmlns="http://www.w3.org/2000/svg">
<rect width="48" height="48" rx="4.8" fill="#E0E7F9"/>
<path opacity="0.4" d="M24 34C29.5228 34 34 29.5228 34 24C34 18.4772 29.5228 14 24 14C18.4772 14 14 18.4772 14 24C14 29.5228 18.4772 34 24 34Z" fill="#1C3053"/>
<path d="M27.71 27.93C27.58 27.93 27.45 27.9 27.33 27.82L24.23 25.97C23.46 25.51 22.89 24.5 22.89 23.61V19.51C22.89 19.1 23.23 18.76 23.64 18.76C24.05 18.76 24.39 19.1 24.39 19.51V23.61C24.39 23.97 24.69 24.5 25 24.68L28.1 26.53C28.46 26.74 28.57 27.2 28.36 27.56C28.21 27.8 27.96 27.93 27.71 27.93Z" fill="#1C3053"/>
</svg>
