<svg width="32" height="32" viewBox="0 0 32 32" fill="none" xmlns="http://www.w3.org/2000/svg">
<path opacity="0.4" d="M9.2534 27.5066C11.2401 28.6666 13.5467 29.3333 16.0001 29.3333C23.5067 29.3333 29.7467 22.7066 29.3067 15.2133C28.8534 7.47995 21.8267 1.51995 13.7334 2.85328C8.16005 3.77328 3.69339 8.29328 2.82673 13.8666C2.32006 17.0933 2.98676 20.1466 4.44009 22.6666L3.2534 27.0799C2.98674 28.0799 3.90671 28.9866 4.89338 28.7066L9.2534 27.5066Z" fill="white"/>
<path d="M22.6667 20.2266C22.6667 20.4666 22.6133 20.72 22.4933 20.96C22.3733 21.2 22.2267 21.4266 22.04 21.64C21.7067 22 21.3467 22.2666 20.9467 22.4266C20.5467 22.6 20.1066 22.68 19.64 22.68C18.96 22.68 18.2266 22.52 17.4666 22.1866C16.6933 21.8533 15.9333 21.4133 15.1733 20.8666C14.4 20.3066 13.68 19.68 12.9866 19C12.2933 18.3066 11.68 17.5733 11.12 16.8133C10.5734 16.0533 10.1333 15.2933 9.81331 14.5333C9.49331 13.7733 9.33333 13.04 9.33333 12.3466C9.33333 11.8933 9.41332 11.4533 9.57332 11.0533C9.73332 10.64 9.98667 10.2666 10.3467 9.9333C10.7733 9.50663 11.24 9.30664 11.7333 9.30664C11.92 9.30664 12.1067 9.34664 12.28 9.42664C12.4534 9.50664 12.6133 9.62663 12.7333 9.79997L14.2667 12C14.3867 12.1733 14.48 12.32 14.5334 12.4666C14.6 12.6133 14.6266 12.7466 14.6266 12.88C14.6266 13.04 14.5733 13.2 14.48 13.36C14.3866 13.52 14.2667 13.68 14.1067 13.84L13.6 14.3733C13.52 14.4533 13.4933 14.5333 13.4933 14.64C13.4933 14.6933 13.5067 14.7466 13.52 14.8C13.5467 14.8533 13.56 14.8933 13.5733 14.9333C13.6933 15.16 13.9067 15.44 14.2 15.7866C14.5067 16.1333 14.8267 16.4933 15.1733 16.84C15.5333 17.2 15.88 17.52 16.24 17.8266C16.5867 18.12 16.88 18.32 17.1067 18.44C17.1467 18.4533 17.1866 18.48 17.2266 18.4933C17.28 18.52 17.3333 18.52 17.4 18.52C17.52 18.52 17.6 18.48 17.68 18.4L18.1867 17.8933C18.36 17.72 18.52 17.6 18.6667 17.52C18.8267 17.4266 18.9733 17.3733 19.1466 17.3733C19.28 17.3733 19.4133 17.4 19.56 17.4666C19.7066 17.5333 19.8667 17.6133 20.0267 17.7333L22.24 19.3066C22.4133 19.4266 22.5334 19.5733 22.6134 19.7333C22.6267 19.88 22.6667 20.04 22.6667 20.2266Z" fill="white"/>
</svg>
