<svg width="80" height="80" viewBox="0 0 80 80" fill="none" xmlns="http://www.w3.org/2000/svg">
<rect width="80" height="80" rx="8" fill="#E6F0FE" style="fill:#E6F0FE;fill:color(display-p3 0.9020 0.9412 0.9961);fill-opacity:1;"/>
<path d="M52.6667 17.4934V13.3334C52.6667 12.24 51.76 11.3334 50.6667 11.3334C49.5733 11.3334 48.6667 12.24 48.6667 13.3334V17.3334H31.3334V13.3334C31.3334 12.24 30.4267 11.3334 29.3334 11.3334C28.24 11.3334 27.3334 12.24 27.3334 13.3334V17.4934C20.1334 18.16 16.64 22.4534 16.1067 28.8267C16.0534 29.6 16.6934 30.24 17.44 30.24H62.56C63.3333 30.24 63.9733 29.5734 63.8933 28.8267C63.36 22.4534 59.8667 18.16 52.6667 17.4934Z" fill="#1C3053" style="fill:#1C3053;fill:color(display-p3 0.1098 0.1882 0.3255);fill-opacity:1;"/>
<path opacity="0.4" d="M61.3333 34.24C62.8 34.24 64 35.44 64 36.9067V53.3333C64 61.3333 60 66.6667 50.6667 66.6667H29.3333C20 66.6667 16 61.3333 16 53.3333V36.9067C16 35.44 17.2 34.24 18.6667 34.24H61.3333Z" fill="#1C3053" style="fill:#1C3053;fill:color(display-p3 0.1098 0.1882 0.3255);fill-opacity:1;"/>
<path d="M30.6667 47.9999C29.9733 47.9999 29.28 47.7066 28.7733 47.2266C28.2933 46.7199 28 46.0266 28 45.3333C28 44.6399 28.2933 43.9466 28.7733 43.44C29.52 42.6933 30.6933 42.4532 31.68 42.8799C32.0267 43.0132 32.32 43.2 32.56 43.44C33.04 43.9466 33.3333 44.6399 33.3333 45.3333C33.3333 46.0266 33.04 46.7199 32.56 47.2266C32.0533 47.7066 31.36 47.9999 30.6667 47.9999Z" fill="#1C3053" style="fill:#1C3053;fill:color(display-p3 0.1098 0.1882 0.3255);fill-opacity:1;"/>
<path d="M40 47.9999C39.3066 47.9999 38.6133 47.7066 38.1066 47.2266C37.6266 46.7199 37.3333 46.0266 37.3333 45.3333C37.3333 44.6399 37.6266 43.9466 38.1066 43.44C38.3466 43.2 38.64 43.0132 38.9866 42.8799C39.9733 42.4532 41.1466 42.6933 41.8933 43.44C42.3733 43.9466 42.6666 44.6399 42.6666 45.3333C42.6666 46.0266 42.3733 46.7199 41.8933 47.2266C41.76 47.3333 41.6267 47.4399 41.4933 47.5466C41.3333 47.6532 41.1733 47.7333 41.0133 47.7866C40.8533 47.8666 40.6933 47.92 40.5333 47.9466C40.3466 47.9733 40.1866 47.9999 40 47.9999Z" fill="#1C3053" style="fill:#1C3053;fill:color(display-p3 0.1098 0.1882 0.3255);fill-opacity:1;"/>
<path d="M49.3334 48C48.64 48 47.9467 47.7066 47.44 47.2266C46.96 46.72 46.6667 46.0267 46.6667 45.3333C46.6667 44.64 46.96 43.9467 47.44 43.44C47.7067 43.2 47.9734 43.0133 48.32 42.88C48.8 42.6666 49.3334 42.6133 49.8667 42.72C50.0267 42.7466 50.1867 42.8 50.3467 42.88C50.5067 42.9333 50.6667 43.0134 50.8267 43.12C50.96 43.2267 51.0934 43.3333 51.2267 43.44C51.7067 43.9467 52 44.64 52 45.3333C52 46.0267 51.7067 46.72 51.2267 47.2266C51.0934 47.3333 50.96 47.44 50.8267 47.5466C50.6667 47.6533 50.5067 47.7334 50.3467 47.7867C50.1867 47.8667 50.0267 47.92 49.8667 47.9467C49.68 47.9734 49.4934 48 49.3334 48Z" fill="#1C3053" style="fill:#1C3053;fill:color(display-p3 0.1098 0.1882 0.3255);fill-opacity:1;"/>
<path d="M30.6667 57.3334C30.32 57.3334 29.9733 57.2534 29.6533 57.1201C29.3067 56.9867 29.04 56.8 28.7733 56.56C28.2933 56.0533 28 55.36 28 54.6667C28 53.9734 28.2933 53.2801 28.7733 52.7734C29.04 52.5334 29.3067 52.3467 29.6533 52.2133C30.1333 52 30.6667 51.9467 31.2 52.0533C31.36 52.08 31.52 52.1333 31.68 52.2133C31.84 52.2667 32 52.3467 32.16 52.4534C32.2933 52.5601 32.4267 52.6667 32.56 52.7734C33.04 53.2801 33.3333 53.9734 33.3333 54.6667C33.3333 55.36 33.04 56.0533 32.56 56.56C32.4267 56.6667 32.2933 56.8 32.16 56.88C32 56.9867 31.84 57.0667 31.68 57.1201C31.52 57.2001 31.36 57.2534 31.2 57.2801C31.0133 57.3067 30.8533 57.3334 30.6667 57.3334Z" fill="#1C3053" style="fill:#1C3053;fill:color(display-p3 0.1098 0.1882 0.3255);fill-opacity:1;"/>
<path d="M40 57.3333C39.3066 57.3333 38.6133 57.0399 38.1066 56.5599C37.6266 56.0533 37.3333 55.36 37.3333 54.6666C37.3333 53.9733 37.6266 53.28 38.1066 52.7733C39.0933 51.7867 40.9066 51.7867 41.8933 52.7733C42.3733 53.28 42.6666 53.9733 42.6666 54.6666C42.6666 55.36 42.3733 56.0533 41.8933 56.5599C41.3866 57.0399 40.6933 57.3333 40 57.3333Z" fill="#1C3053" style="fill:#1C3053;fill:color(display-p3 0.1098 0.1882 0.3255);fill-opacity:1;"/>
<path d="M49.3334 57.3333C48.64 57.3333 47.9467 57.0399 47.44 56.5599C46.96 56.0533 46.6667 55.36 46.6667 54.6666C46.6667 53.9733 46.96 53.28 47.44 52.7733C48.4267 51.7867 50.24 51.7867 51.2267 52.7733C51.7067 53.28 52 53.9733 52 54.6666C52 55.36 51.7067 56.0533 51.2267 56.5599C50.72 57.0399 50.0267 57.3333 49.3334 57.3333Z" fill="#1C3053" style="fill:#1C3053;fill:color(display-p3 0.1098 0.1882 0.3255);fill-opacity:1;"/>
</svg>
