<svg width="80" height="80" viewBox="0 0 80 80" fill="none" xmlns="http://www.w3.org/2000/svg">
<rect width="80" height="80" rx="8" fill="#E6F0FE" style="fill:#E6F0FE;fill:color(display-p3 0.9020 0.9412 0.9961);fill-opacity:1;"/>
<path opacity="0.4" d="M62.6667 35.1734H54.96C48.64 35.1734 43.4933 30.0267 43.4933 23.7067V16C43.4933 14.5334 42.2933 13.3334 40.8267 13.3334H29.52C21.3067 13.3334 14.6667 18.6667 14.6667 28.1867V51.8134C14.6667 61.3334 21.3067 66.6667 29.52 66.6667H50.48C58.6933 66.6667 65.3333 61.3334 65.3333 51.8134V37.84C65.3333 36.3734 64.1333 35.1734 62.6667 35.1734Z" fill="#1C3053" style="fill:#1C3053;fill:color(display-p3 0.1098 0.1882 0.3255);fill-opacity:1;"/>
<path d="M50.1333 13.8933C49.04 12.7999 47.1467 13.5466 47.1467 15.0666V24.3733C47.1467 28.2666 50.4533 31.4933 54.48 31.4933C57.0133 31.5199 60.5333 31.5199 63.5467 31.5199C65.0667 31.5199 65.8667 29.7333 64.8 28.6666C60.96 24.7999 54.08 17.8399 50.1333 13.8933Z" fill="#1C3053" style="fill:#1C3053;fill:color(display-p3 0.1098 0.1882 0.3255);fill-opacity:1;"/>
<path d="M44 44.6666H28C26.9067 44.6666 26 43.76 26 42.6666C26 41.5733 26.9067 40.6666 28 40.6666H44C45.0933 40.6666 46 41.5733 46 42.6666C46 43.76 45.0933 44.6666 44 44.6666Z" fill="#081326" style="fill:#081326;fill:color(display-p3 0.0314 0.0745 0.1490);fill-opacity:1;"/>
<path d="M38.6667 55.3334H28C26.9067 55.3334 26 54.4267 26 53.3334C26 52.24 26.9067 51.3334 28 51.3334H38.6667C39.76 51.3334 40.6667 52.24 40.6667 53.3334C40.6667 54.4267 39.76 55.3334 38.6667 55.3334Z" fill="#081326" style="fill:#081326;fill:color(display-p3 0.0314 0.0745 0.1490);fill-opacity:1;"/>
</svg>
