<svg width="80" height="80" viewBox="0 0 80 80" fill="none" xmlns="http://www.w3.org/2000/svg">
<rect width="80" height="80" rx="8" fill="#E6F0FE" style="fill:#E6F0FE;fill:color(display-p3 0.9020 0.9412 0.9961);fill-opacity:1;"/>
<path opacity="0.4" d="M61.0133 63.84C58.48 65.7067 55.1467 66.6667 51.1733 66.6667H28.8267C28.1867 66.6667 27.5467 66.64 26.9333 66.56L45.3333 48.16L61.0133 63.84Z" fill="#1C3053" style="fill:#1C3053;fill:color(display-p3 0.1098 0.1882 0.3255);fill-opacity:1;"/>
<path opacity="0.4" d="M66.6667 28.8267V51.1734C66.6667 55.1467 65.7067 58.48 63.84 61.0133L48.16 45.3334L66.56 26.9333C66.64 27.5467 66.6667 28.1867 66.6667 28.8267Z" fill="#1C3053" style="fill:#1C3053;fill:color(display-p3 0.1098 0.1882 0.3255);fill-opacity:1;"/>
<path opacity="0.4" d="M48.16 45.3334L63.84 61.0134C63.0667 62.1334 62.1334 63.0667 61.0134 63.84L45.3333 48.16L26.9334 66.56C25.2267 66.4534 23.68 66.1067 22.2667 65.5734C16.56 63.4934 13.3333 58.4267 13.3333 51.1734V28.8267C13.3333 19.12 19.12 13.3334 28.8267 13.3334H51.1734C58.4267 13.3334 63.4933 16.56 65.5733 22.2667C66.1067 23.68 66.4533 25.2267 66.56 26.9334L48.16 45.3334Z" fill="#1C3053" style="fill:#1C3053;fill:color(display-p3 0.1098 0.1882 0.3255);fill-opacity:1;"/>
<path d="M48.16 45.3333L63.84 61.0133C63.0667 62.1333 62.1334 63.0666 61.0134 63.8399L45.3333 48.1599L26.9334 66.5599C25.2267 66.4533 23.68 66.1066 22.2667 65.5733L23.3067 64.5333L65.5733 22.2666C66.1067 23.6799 66.4533 25.2266 66.56 26.9333L48.16 45.3333Z" fill="#1C3053" style="fill:#1C3053;fill:color(display-p3 0.1098 0.1882 0.3255);fill-opacity:1;"/>
<path d="M40.64 29.1467C39.6266 24.7467 35.7333 22.7734 32.32 22.7467C28.9066 22.7467 25.0133 24.72 24 29.12C22.88 34 25.8666 38.08 28.56 40.64C29.6266 41.6534 30.96 42.1334 32.32 42.1334C33.68 42.1334 35.0133 41.6267 36.08 40.64C38.7733 38.08 41.76 34 40.64 29.1467ZM32.4 33.3067C30.9333 33.3067 29.7333 32.1067 29.7333 30.64C29.7333 29.1734 30.9066 27.9734 32.4 27.9734H32.4267C33.8933 27.9734 35.0933 29.1734 35.0933 30.64C35.0933 32.1067 33.8666 33.3067 32.4 33.3067Z" fill="#1C3053" style="fill:#1C3053;fill:color(display-p3 0.1098 0.1882 0.3255);fill-opacity:1;"/>
</svg>
