<svg width="80" height="80" viewBox="0 0 80 80" fill="none" xmlns="http://www.w3.org/2000/svg">
<rect width="80" height="80" rx="8" fill="#E6F0FE" style="fill:#E6F0FE;fill:color(display-p3 0.9020 0.9412 0.9961);fill-opacity:1;"/>
<path opacity="0.4" d="M62.4267 26.56V34.1333L27.7334 59.5733L20.72 54.32C18.9867 53.0133 17.5734 50.2133 17.5734 48.0533V26.56C17.5734 23.5733 19.8667 20.2666 22.6667 19.2266L37.2534 13.76C38.7734 13.2 41.2267 13.2 42.7467 13.76L57.3334 19.2266C60.1334 20.2666 62.4267 23.5733 62.4267 26.56Z" fill="#1C3053" style="fill:#1C3053;fill:color(display-p3 0.1098 0.1882 0.3255);fill-opacity:1;"/>
<path d="M62.4266 37.7866V48.0533C62.4266 50.2133 61.0133 53.0133 59.28 54.32L44.6933 65.2266C43.4133 66.1866 41.7066 66.6666 40 66.6666C38.2933 66.6666 36.5866 66.1866 35.3066 65.2266L30.1866 61.4133L62.4266 37.7866Z" fill="#1C3053" style="fill:#1C3053;fill:color(display-p3 0.1098 0.1882 0.3255);fill-opacity:1;"/>
</svg>
