<svg width="183" height="64" viewBox="0 0 183 64" fill="none" xmlns="http://www.w3.org/2000/svg">
<path fill-rule="evenodd" clip-rule="evenodd" d="M4.48836 36.9943C4.48836 36.9943 36.1234 29.1521 40.6833 28.0218C41.0411 27.9331 41.4153 27.9335 41.7729 28.0229C44.1107 28.6075 53.3611 30.9206 57.4628 31.9463C58.6201 32.2357 59.4244 33.2813 59.4037 34.4694C59.3063 40.0486 59.0417 55.2095 59.0417 55.2095H6.49828C5.88467 55.2095 5.29675 54.964 4.86664 54.5281C4.43652 54.0923 4.20025 53.5026 4.21092 52.8916C4.25802 50.1933 4.32942 46.1019 4.32942 46.1019L8.92191 44.9634L8.82254 50.6557H40.8308L41.1487 32.4404L4.40891 41.548L4.48839 36.9942L4.48836 36.9943Z" fill="#1C3053" style="fill:#1C3053;fill:color(display-p3 0.1098 0.1882 0.3255);fill-opacity:1;"/>
<path fill-rule="evenodd" clip-rule="evenodd" d="M22.7889 5.9123C23.1476 5.82337 23.5228 5.82375 23.8814 5.91341C27.7717 6.88623 51.3226 12.7753 57.996 14.4441C59.0273 14.702 59.7441 15.6338 59.7256 16.6925C59.6607 20.4059 59.5187 28.5459 59.5187 28.5459L54.9659 27.4075L55.1249 18.2999L23.2558 10.3307C23.2558 10.3307 23.0478 22.2475 22.9683 26.8035C22.9503 27.8312 22.2413 28.7186 21.2398 28.9669C16.6901 30.0947 4.56799 33.0997 4.56799 33.0997C4.56799 33.0997 4.84196 17.4043 4.93497 12.076C4.95294 11.0466 5.66315 10.1577 6.66637 9.90898C10.6401 8.92391 20.3786 6.50977 22.789 5.91226L22.7889 5.9123Z" fill="#387FBC" style="fill:#387FBC;fill:color(display-p3 0.2196 0.4980 0.7373);fill-opacity:1;"/>
<path d="M80.384 44.32C78.9973 44.32 77.7387 43.968 76.608 43.264C75.4987 42.56 74.6133 41.6107 73.952 40.416C73.312 39.2 72.992 37.8453 72.992 36.352C72.992 34.8373 73.312 33.4827 73.952 32.288C74.6133 31.072 75.4987 30.112 76.608 29.408C77.7387 28.6827 78.9973 28.32 80.384 28.32C81.5573 28.32 82.592 28.576 83.488 29.088C84.4053 29.5787 85.1307 30.2613 85.664 31.136C86.1973 32.0107 86.464 33.0027 86.464 34.112V38.528C86.464 39.6373 86.1973 40.6293 85.664 41.504C85.152 42.3787 84.4373 43.072 83.52 43.584C82.6027 44.0747 81.5573 44.32 80.384 44.32ZM80.96 40.992C82.2613 40.992 83.3067 40.5547 84.096 39.68C84.9067 38.8053 85.312 37.6853 85.312 36.32C85.312 35.4027 85.1307 34.592 84.768 33.888C84.4053 33.184 83.8933 32.64 83.232 32.256C82.592 31.8507 81.8347 31.648 80.96 31.648C80.1067 31.648 79.3493 31.8507 78.688 32.256C78.048 32.64 77.536 33.184 77.152 33.888C76.7893 34.592 76.608 35.4027 76.608 36.32C76.608 37.2373 76.7893 38.048 77.152 38.752C77.536 39.456 78.048 40.0107 78.688 40.416C79.3493 40.8 80.1067 40.992 80.96 40.992ZM85.088 44V39.872L85.696 36.128L85.088 32.416V28.64H88.608V44H85.088ZM101.542 44V35.136C101.542 34.112 101.211 33.2693 100.55 32.608C99.9095 31.9467 99.0775 31.616 98.0535 31.616C97.3708 31.616 96.7628 31.7653 96.2295 32.064C95.6962 32.3627 95.2802 32.7787 94.9815 33.312C94.6828 33.8453 94.5335 34.4533 94.5335 35.136L93.1575 34.368C93.1575 33.1947 93.4135 32.16 93.9255 31.264C94.4375 30.3467 95.1415 29.632 96.0375 29.12C96.9548 28.5867 97.9788 28.32 99.1095 28.32C100.262 28.32 101.286 28.6187 102.182 29.216C103.078 29.792 103.782 30.5493 104.294 31.488C104.806 32.4053 105.062 33.3653 105.062 34.368V44H101.542ZM91.0135 44V28.64H94.5335V44H91.0135ZM115.362 44.32C114.188 44.32 113.143 44.0747 112.226 43.584C111.308 43.072 110.583 42.3787 110.05 41.504C109.538 40.6293 109.282 39.6373 109.282 38.528V34.112C109.282 33.0027 109.548 32.0107 110.082 31.136C110.615 30.2613 111.34 29.5787 112.258 29.088C113.175 28.576 114.21 28.32 115.362 28.32C116.748 28.32 117.996 28.6827 119.106 29.408C120.236 30.112 121.122 31.072 121.762 32.288C122.423 33.4827 122.754 34.8373 122.754 36.352C122.754 37.8453 122.423 39.2 121.762 40.416C121.122 41.6107 120.236 42.56 119.106 43.264C117.996 43.968 116.748 44.32 115.362 44.32ZM107.138 44V20.96H110.658V32.416L110.05 36.128L110.658 39.872V44H107.138ZM114.786 40.992C115.639 40.992 116.386 40.8 117.026 40.416C117.687 40.0107 118.199 39.456 118.562 38.752C118.946 38.048 119.138 37.2373 119.138 36.32C119.138 35.4027 118.946 34.592 118.562 33.888C118.199 33.184 117.687 32.64 117.026 32.256C116.386 31.8507 115.639 31.648 114.786 31.648C113.932 31.648 113.175 31.8507 112.514 32.256C111.852 32.64 111.34 33.184 110.978 33.888C110.615 34.592 110.434 35.4027 110.434 36.32C110.434 37.2373 110.615 38.048 110.978 38.752C111.34 39.456 111.852 40.0107 112.514 40.416C113.175 40.8 113.932 40.992 114.786 40.992ZM130.631 44.32C129.244 44.32 127.986 43.968 126.855 43.264C125.746 42.56 124.86 41.6107 124.199 40.416C123.559 39.2 123.239 37.8453 123.239 36.352C123.239 34.8373 123.559 33.4827 124.199 32.288C124.86 31.072 125.746 30.112 126.855 29.408C127.986 28.6827 129.244 28.32 130.631 28.32C131.804 28.32 132.839 28.576 133.735 29.088C134.652 29.5787 135.378 30.2613 135.911 31.136C136.444 32.0107 136.711 33.0027 136.711 34.112V38.528C136.711 39.6373 136.444 40.6293 135.911 41.504C135.399 42.3787 134.684 43.072 133.767 43.584C132.85 44.0747 131.804 44.32 130.631 44.32ZM131.207 40.992C132.508 40.992 133.554 40.5547 134.343 39.68C135.154 38.8053 135.559 37.6853 135.559 36.32C135.559 35.4027 135.378 34.592 135.015 33.888C134.652 33.184 134.14 32.64 133.479 32.256C132.839 31.8507 132.082 31.648 131.207 31.648C130.354 31.648 129.596 31.8507 128.935 32.256C128.295 32.64 127.783 33.184 127.399 33.888C127.036 34.592 126.855 35.4027 126.855 36.32C126.855 37.2373 127.036 38.048 127.399 38.752C127.783 39.456 128.295 40.0107 128.935 40.416C129.596 40.8 130.354 40.992 131.207 40.992ZM135.335 44V39.872L135.943 36.128L135.335 32.416V28.64H138.855V44H135.335ZM141.261 44V28.64H144.781V44H141.261ZM144.781 35.456L143.565 34.848C143.565 32.9067 143.991 31.3387 144.845 30.144C145.719 28.928 147.031 28.32 148.781 28.32C149.549 28.32 150.242 28.4587 150.861 28.736C151.479 29.0133 152.055 29.4613 152.589 30.08L150.285 32.448C150.007 32.1493 149.698 31.936 149.357 31.808C149.015 31.68 148.621 31.616 148.173 31.616C147.191 31.616 146.381 31.9253 145.741 32.544C145.101 33.1627 144.781 34.1333 144.781 35.456ZM153.541 44.32C152.859 44.32 152.293 44.096 151.845 43.648C151.419 43.1787 151.205 42.6133 151.205 41.952C151.205 41.2693 151.419 40.704 151.845 40.256C152.293 39.808 152.859 39.584 153.541 39.584C154.224 39.584 154.779 39.808 155.205 40.256C155.653 40.704 155.877 41.2693 155.877 41.952C155.877 42.6133 155.653 43.1787 155.205 43.648C154.779 44.096 154.224 44.32 153.541 44.32ZM164.534 44.32C163.148 44.32 161.889 43.968 160.758 43.264C159.649 42.56 158.764 41.6107 158.102 40.416C157.462 39.2 157.142 37.8453 157.142 36.352C157.142 34.8373 157.462 33.4827 158.102 32.288C158.764 31.072 159.649 30.112 160.758 29.408C161.889 28.6827 163.148 28.32 164.534 28.32C165.708 28.32 166.742 28.576 167.638 29.088C168.556 29.5787 169.281 30.2613 169.814 31.136C170.348 32.0107 170.614 33.0027 170.614 34.112V38.528C170.614 39.6373 170.348 40.6293 169.814 41.504C169.302 42.3787 168.588 43.072 167.67 43.584C166.753 44.0747 165.708 44.32 164.534 44.32ZM165.11 40.992C166.412 40.992 167.457 40.5547 168.246 39.68C169.057 38.8053 169.462 37.6853 169.462 36.32C169.462 35.4027 169.281 34.592 168.918 33.888C168.556 33.184 168.044 32.64 167.382 32.256C166.742 31.8507 165.985 31.648 165.11 31.648C164.257 31.648 163.5 31.8507 162.838 32.256C162.198 32.64 161.686 33.184 161.302 33.888C160.94 34.592 160.758 35.4027 160.758 36.32C160.758 37.2373 160.94 38.048 161.302 38.752C161.686 39.456 162.198 40.0107 162.838 40.416C163.5 40.8 164.257 40.992 165.11 40.992ZM169.238 44V39.872L169.846 36.128L169.238 32.416V28.64H172.758V44H169.238ZM175.164 44V20.96H178.684V44H175.164Z" fill="#1C3053" style="fill:#1C3053;fill:color(display-p3 0.1098 0.1882 0.3255);fill-opacity:1;"/>
</svg>
