<svg width="48" height="48" viewBox="0 0 48 48" fill="none" xmlns="http://www.w3.org/2000/svg">
<rect width="48" height="48" rx="4.8" fill="#E6F0FE" style="fill:#E6F0FE;fill:color(display-p3 0.9020 0.9412 0.9961);fill-opacity:1;"/>
<path opacity="0.4" d="M35.4158 15.0699C33.7692 11.7449 30.5867 9.29073 26.8975 8.48323C23.0342 7.62823 19.0758 8.54656 16.0517 10.9849C13.0117 13.4074 11.2858 17.0332 11.2858 20.9124C11.2858 25.0132 13.74 29.3041 17.445 31.7899V33.1041C17.4292 33.5474 17.4133 34.2282 17.9517 34.7824C18.5058 35.3524 19.3292 35.4157 19.9783 35.4157H28.1008C28.9558 35.4157 29.605 35.1782 30.0483 34.7349C30.65 34.1174 30.6342 33.3257 30.6183 32.8982V31.7899C35.5267 28.4807 38.6142 21.4982 35.4158 15.0699Z" fill="#1C3053" style="fill:#1C3053;fill:color(display-p3 0.1098 0.1882 0.3255);fill-opacity:1;"/>
<path d="M29.1616 39.8332C29.0666 39.8332 28.9558 39.8174 28.8608 39.7857C25.6783 38.8832 22.3375 38.8832 19.155 39.7857C18.5691 39.9441 17.9516 39.6116 17.7933 39.0257C17.6191 38.4399 17.9675 37.8224 18.5533 37.6641C22.1316 36.6507 25.9 36.6507 29.4783 37.6641C30.0641 37.8382 30.4125 38.4399 30.2383 39.0257C30.08 39.5166 29.6366 39.8332 29.1616 39.8332Z" fill="#1C3053" style="fill:#1C3053;fill:color(display-p3 0.1098 0.1882 0.3255);fill-opacity:1;"/>
<path d="M24 26.9292C23.7942 26.9292 23.5883 26.8817 23.4142 26.7708C22.8442 26.4383 22.6542 25.71 22.9708 25.1558L24.3167 22.8125H22.9867C22.195 22.8125 21.5458 22.4642 21.1975 21.8783C20.8492 21.2767 20.8808 20.5483 21.2767 19.8517L22.9708 16.9067C23.3033 16.3367 24.0317 16.1467 24.5858 16.4633C25.1558 16.7958 25.3458 17.5242 25.0292 18.0783L23.6833 20.4375H25.0133C25.805 20.4375 26.4542 20.7858 26.8025 21.3717C27.1508 21.9733 27.1192 22.7017 26.7233 23.3983L25.0292 26.3433C24.8075 26.7233 24.4117 26.9292 24 26.9292Z" fill="#1C3053" style="fill:#1C3053;fill:color(display-p3 0.1098 0.1882 0.3255);fill-opacity:1;"/>
</svg>
