<svg width="48" height="48" viewBox="0 0 48 48" fill="none" xmlns="http://www.w3.org/2000/svg">
<rect width="48" height="48" rx="4.8" fill="#E6F0FE" style="fill:#E6F0FE;fill:color(display-p3 0.9020 0.9412 0.9961);fill-opacity:1;"/>
<path opacity="0.4" d="M25.5833 10.1458H16.0833C10.6683 10.1458 8.5625 12.2516 8.5625 17.6666V30.3333C8.5625 33.9749 10.5417 37.8541 16.0833 37.8541H25.5833C30.9983 37.8541 33.1042 35.7483 33.1042 30.3333V17.6666C33.1042 12.2516 30.9983 10.1458 25.5833 10.1458Z" fill="#1C3053" style="fill:#1C3053;fill:color(display-p3 0.1098 0.1882 0.3255);fill-opacity:1;"/>
<path d="M23.2084 23.0183C24.8523 23.0183 26.185 21.6856 26.185 20.0416C26.185 18.3976 24.8523 17.0649 23.2084 17.0649C21.5644 17.0649 20.2317 18.3976 20.2317 20.0416C20.2317 21.6856 21.5644 23.0183 23.2084 23.0183Z" fill="#1C3053" style="fill:#1C3053;fill:color(display-p3 0.1098 0.1882 0.3255);fill-opacity:1;"/>
<path d="M39.2792 14.7691C38.63 14.4366 37.2683 14.0566 35.4158 15.355L33.0725 17.0016C33.0883 17.2233 33.1042 17.4291 33.1042 17.6666V30.3333C33.1042 30.5708 33.0725 30.7766 33.0725 30.9983L35.4158 32.645C36.3975 33.3416 37.2525 33.5633 37.9333 33.5633C38.5192 33.5633 38.9783 33.405 39.2792 33.2466C39.9283 32.9141 41.0208 32.0116 41.0208 29.7475V18.2683C41.0208 16.0041 39.9283 15.1016 39.2792 14.7691Z" fill="#1C3053" style="fill:#1C3053;fill:color(display-p3 0.1098 0.1882 0.3255);fill-opacity:1;"/>
</svg>
