<svg width="48" height="48" viewBox="0 0 48 48" fill="none" xmlns="http://www.w3.org/2000/svg">
<rect width="48" height="48" rx="4.8" fill="#E6F0FE" style="fill:#E6F0FE;fill:color(display-p3 0.9020 0.9412 0.9961);fill-opacity:1;"/>
<path d="M24 27.7684C26.0812 27.7684 27.7684 26.0812 27.7684 24C27.7684 21.9188 26.0812 20.2317 24 20.2317C21.9188 20.2317 20.2317 21.9188 20.2317 24C20.2317 26.0812 21.9188 27.7684 24 27.7684Z" fill="#1C3053" style="fill:#1C3053;fill:color(display-p3 0.1098 0.1882 0.3255);fill-opacity:1;"/>
<path opacity="0.4" d="M36.6667 34.6875C36.4134 34.6875 36.1759 34.6083 35.9542 34.45C35.4317 34.0541 35.3209 33.3099 35.7167 32.7874C37.6325 30.2383 38.6459 27.1983 38.6459 24C38.6459 20.8016 37.6325 17.7616 35.7167 15.2125C35.3209 14.69 35.4317 13.9458 35.9542 13.5499C36.4767 13.1541 37.2209 13.2649 37.6167 13.7874C39.8492 16.7483 41.0209 20.2791 41.0209 24C41.0209 27.7208 39.8492 31.2516 37.6167 34.2125C37.3792 34.5291 37.0309 34.6875 36.6667 34.6875Z" fill="#1C3053" style="fill:#1C3053;fill:color(display-p3 0.1098 0.1882 0.3255);fill-opacity:1;"/>
<path opacity="0.4" d="M11.3333 34.6875C10.9691 34.6875 10.6208 34.5291 10.3833 34.2125C8.15078 31.2516 6.97913 27.7208 6.97913 24C6.97913 20.2791 8.15078 16.7483 10.3833 13.7874C10.7791 13.2649 11.5233 13.1541 12.0458 13.5499C12.5683 13.9458 12.6791 14.69 12.2833 15.2125C10.3675 17.7616 9.35413 20.8016 9.35413 24C9.35413 27.1983 10.3675 30.2383 12.2833 32.7874C12.6791 33.3099 12.5683 34.0541 12.0458 34.45C11.84 34.6083 11.5866 34.6875 11.3333 34.6875Z" fill="#1C3053" style="fill:#1C3053;fill:color(display-p3 0.1098 0.1882 0.3255);fill-opacity:1;"/>
<path opacity="0.4" d="M31.6 30.8875C31.3467 30.8875 31.1092 30.8084 30.8875 30.65C30.365 30.2542 30.2542 29.51 30.65 28.9875C31.7425 27.5467 32.3125 25.8208 32.3125 24C32.3125 22.1792 31.7425 20.4533 30.65 19.0125C30.2542 18.49 30.365 17.7458 30.8875 17.35C31.41 16.9541 32.1542 17.065 32.55 17.5875C33.9433 19.4559 34.6875 21.6725 34.6875 24C34.6875 26.3275 33.9433 28.56 32.55 30.4125C32.3125 30.7291 31.9642 30.8875 31.6 30.8875Z" fill="#1C3053" style="fill:#1C3053;fill:color(display-p3 0.1098 0.1882 0.3255);fill-opacity:1;"/>
<path opacity="0.4" d="M16.4 30.8875C16.0359 30.8875 15.6875 30.7291 15.45 30.4125C14.0567 28.5441 13.3125 26.3275 13.3125 24C13.3125 21.6725 14.0567 19.44 15.45 17.5875C15.8458 17.065 16.59 16.9541 17.1125 17.35C17.635 17.7458 17.7458 18.49 17.35 19.0125C16.2575 20.4533 15.6875 22.1792 15.6875 24C15.6875 25.8208 16.2575 27.5467 17.35 28.9875C17.7458 29.51 17.635 30.2542 17.1125 30.65C16.9067 30.8084 16.6534 30.8875 16.4 30.8875Z" fill="#1C3053" style="fill:#1C3053;fill:color(display-p3 0.1098 0.1882 0.3255);fill-opacity:1;"/>
</svg>
