<svg width="48" height="48" viewBox="0 0 48 48" fill="none" xmlns="http://www.w3.org/2000/svg">
<rect width="48" height="48" rx="4.8" fill="#E6F0FE" style="fill:#E6F0FE;fill:color(display-p3 0.9020 0.9412 0.9961);fill-opacity:1;"/>
<path opacity="0.4" d="M39.4216 23.5884C38.4558 20.4217 36.0491 18.1417 33.025 17.4609C32.1383 13.5025 29.7 10.6684 26.2483 9.59171C22.48 8.43588 18.11 9.56004 15.3708 12.4259C12.9483 14.9434 12.1566 18.4109 13.0908 22.1C9.71829 22.9234 8.16663 25.8684 8.16663 28.5284C8.16663 31.505 10.1141 34.8459 14.4525 35.1467H18.4583V30.9825C18.4583 28.9717 19.6616 27.7684 21.6725 27.7684H26.3275C28.3383 27.7684 29.5416 28.9717 29.5416 30.9825V35.1467H30.8241C30.84 35.1467 30.8716 35.1467 30.8875 35.1467C33.1358 35.1467 35.2891 34.3075 36.9358 32.8034C39.5166 30.555 40.4666 27.0242 39.4216 23.5884Z" fill="#1C3053" style="fill:#1C3053;fill:color(display-p3 0.1098 0.1882 0.3255);fill-opacity:1;"/>
<path d="M26.3275 27.7842H21.6725C19.6617 27.7842 18.4584 28.9875 18.4584 30.9983V35.6533C18.4584 37.6642 19.6617 38.8675 21.6725 38.8675H26.3275C28.3384 38.8675 29.5417 37.6642 29.5417 35.6533V30.9983C29.5417 28.9875 28.3384 27.7842 26.3275 27.7842ZM23.5409 34.83L21.5775 36.7775C21.435 36.92 21.245 36.9992 21.0709 36.9992C20.865 36.9992 20.6909 36.92 20.5484 36.7775C20.2634 36.4925 20.2634 36.0333 20.5484 35.7483L22.4959 33.785C22.7967 33.5 23.2559 33.5 23.5409 33.785C23.8259 34.07 23.8259 34.545 23.5409 34.83ZM23.5409 30.9033L21.5775 32.8667C21.435 33.0092 21.245 33.0883 21.0709 33.0883C20.865 33.0883 20.6909 33.0092 20.5484 32.8667C20.2634 32.5817 20.2634 32.1067 20.5484 31.8217L22.4959 29.8742C22.7967 29.5892 23.2559 29.5892 23.5409 29.8742C23.8259 30.1592 23.8259 30.6183 23.5409 30.9033ZM27.4517 34.83L25.5042 36.7775C25.3459 36.92 25.1717 36.9992 24.9817 36.9992C24.7917 36.9992 24.6017 36.92 24.4592 36.7775C24.1742 36.4925 24.1742 36.0333 24.4592 35.7483L26.4225 33.785C26.7075 33.5 27.1667 33.5 27.4517 33.785C27.7367 34.07 27.7367 34.545 27.4517 34.83ZM27.4517 30.9033L25.5042 32.8667C25.3459 33.0092 25.1717 33.0883 24.9817 33.0883C24.7917 33.0883 24.6017 33.0092 24.4592 32.8667C24.1742 32.5817 24.1742 32.1067 24.4592 31.8217L26.4225 29.8742C26.7075 29.5892 27.1667 29.5892 27.4517 29.8742C27.7367 30.1592 27.7367 30.6183 27.4517 30.9033Z" fill="#1C3053" style="fill:#1C3053;fill:color(display-p3 0.1098 0.1882 0.3255);fill-opacity:1;"/>
</svg>
